<?xml version="1.0" standalone="no"?>
<!DOCTYPE svg PUBLIC "-//W3C//DTD SVG 20010904//EN"
 "http://www.w3.org/TR/2001/REC-SVG-20010904/DTD/svg10.dtd">
<svg version="1.0" xmlns="http://www.w3.org/2000/svg"
 width="6000.000000pt" height="6000.000000pt" viewBox="0 0 6000.000000 6000.000000"
 preserveAspectRatio="xMidYMid meet">

<g transform="translate(0.000000,6000.000000) scale(0.100000,-0.100000)"
fill="#000000" stroke="none">
<path d="M14345 38404 c-280 -29 -572 -66 -620 -79 -32 -9 -62 -27 -84 -49
-30 -31 -34 -42 -42 -120 -10 -97 -26 -135 -66 -164 -39 -26 -50 -30 -211 -63
-196 -40 -234 -28 -291 93 -39 83 -117 127 -199 112 -152 -26 -731 -221 -804
-271 -21 -14 -47 -45 -58 -68 -19 -39 -20 -54 -14 -142 6 -92 5 -100 -17 -132
-26 -37 -42 -46 -204 -121 -173 -80 -218 -77 -293 19 -48 63 -96 91 -157 91
-38 0 -71 -12 -169 -61 -166 -84 -306 -165 -471 -274 -218 -142 -238 -176
-190 -321 26 -77 27 -88 15 -126 -7 -24 -28 -58 -49 -78 -57 -55 -232 -176
-273 -189 -45 -15 -106 -1 -134 30 -10 12 -38 32 -62 46 -60 35 -139 30 -202
-14 -131 -90 -589 -522 -622 -587 -33 -64 -28 -116 16 -180 76 -111 68 -168
-37 -284 -34 -37 -80 -89 -101 -115 -49 -61 -106 -91 -152 -82 -18 3 -60 20
-91 36 -74 39 -133 37 -196 -7 -48 -34 -245 -291 -404 -526 -161 -239 -164
-278 -38 -419 41 -46 55 -69 55 -92 0 -41 -97 -235 -160 -320 -64 -86 -83 -94
-175 -73 -38 9 -83 16 -99 16 -44 0 -111 -36 -142 -77 -53 -69 -354 -773 -354
-827 0 -57 24 -102 71 -133 23 -15 62 -47 86 -69 40 -39 43 -45 43 -95 0 -61
-88 -339 -118 -372 -30 -34 -76 -47 -140 -41 -91 10 -164 -22 -197 -86 -35
-67 -119 -421 -161 -675 -42 -255 -28 -300 112 -366 73 -35 87 -46 105 -82 19
-36 21 -52 15 -117 -15 -188 -27 -273 -38 -298 -19 -38 -71 -69 -131 -77 -93
-13 -147 -51 -173 -122 -17 -49 -20 -846 -3 -908 15 -53 65 -102 115 -110 125
-20 179 -55 202 -133 7 -23 17 -104 23 -182 14 -191 2 -225 -101 -264 -99 -38
-149 -105 -150 -199 0 -80 150 -777 180 -837 39 -76 86 -100 196 -100 119 0
159 -32 195 -154 11 -39 32 -104 46 -144 46 -130 31 -192 -61 -246 -79 -46
-124 -123 -112 -189 15 -80 142 -389 261 -632 118 -244 160 -276 309 -236 123
33 157 12 251 -154 128 -228 129 -237 35 -341 -83 -91 -96 -152 -52 -239 48
-96 391 -575 470 -658 75 -78 140 -89 240 -38 95 48 155 41 216 -26 190 -208
216 -244 216 -295 0 -24 -24 -76 -65 -143 -27 -43 -33 -104 -15 -151 17 -45
81 -113 252 -272 218 -201 343 -307 403 -343 42 -25 58 -29 103 -26 35 2 62
11 80 26 71 57 117 81 156 81 48 0 65 -10 218 -124 151 -112 171 -151 129
-254 -11 -26 -22 -60 -25 -75 -9 -41 11 -102 46 -143 56 -64 336 -239 621
-389 100 -53 137 -67 175 -68 65 -3 107 18 148 71 77 101 139 116 254 61 35
-16 102 -46 147 -66 52 -22 93 -47 109 -66 26 -31 26 -33 19 -138 -11 -174 12
-201 243 -288 163 -62 379 -132 532 -173 183 -49 243 -31 303 90 44 91 81 115
162 109 78 -6 288 -53 326 -72 44 -23 60 -57 70 -146 5 -44 16 -93 24 -109 19
-36 66 -76 107 -89 76 -24 450 -69 723 -87 176 -11 235 23 275 156 28 93 66
135 131 145 24 4 110 5 191 3 130 -3 150 -5 175 -24 32 -24 59 -71 73 -130 14
-58 48 -104 95 -128 35 -18 56 -21 155 -19 131 2 369 24 580 54 242 34 287 68
299 223 7 92 23 126 72 151 38 20 245 66 324 72 77 5 113 -15 144 -83 35 -75
85 -121 146 -135 46 -10 64 -8 161 16 60 14 201 57 314 95 470 158 487 171
474 360 -6 86 -4 103 11 127 27 40 53 59 115 84 30 12 89 39 131 60 136 68
185 61 259 -37 50 -66 83 -84 155 -84 49 0 71 8 178 63 179 93 324 178 482
282 113 75 145 101 164 135 31 56 32 111 2 179 -26 62 -25 120 4 165 18 28
219 182 274 210 51 27 112 21 161 -16 106 -81 156 -95 225 -62 101 48 625 537
666 622 29 59 22 113 -25 188 -29 48 -36 69 -36 109 0 65 17 93 148 232 137
146 157 153 276 89 60 -32 121 -34 176 -6 52 27 189 196 378 470 l94 135
-2095 3 -2095 2 -213 -109 c-493 -252 -958 -412 -1484 -510 -302 -56 -532 -79
-870 -87 -863 -22 -1703 159 -2481 535 -1605 777 -2728 2293 -2999 4051 -46
295 -59 482 -59 830 0 443 31 745 118 1152 188 870 584 1668 1183 2377 126
149 435 458 583 583 435 367 890 652 1385 866 865 374 1827 515 2775 406 483
-55 985 -185 1445 -374 72 -30 240 -109 375 -177 l246 -123 2092 0 2093 0 -83
122 c-92 136 -247 345 -315 425 -78 91 -149 106 -253 52 -100 -53 -166 -39
-237 48 -21 26 -63 74 -94 108 -104 111 -111 156 -49 279 70 139 55 183 -123
349 -276 259 -484 440 -526 459 -56 26 -109 20 -162 -19 -21 -15 -53 -38 -70
-50 -34 -24 -98 -31 -141 -14 -20 8 -133 88 -236 167 -73 56 -87 115 -51 206
38 97 24 175 -44 235 -63 56 -378 248 -598 366 -181 97 -229 96 -324 -7 -68
-75 -119 -101 -174 -91 -20 4 -85 31 -146 60 -60 29 -119 56 -130 59 -57 18
-101 94 -90 153 11 60 7 150 -8 179 -34 65 -77 88 -332 179 -162 57 -462 149
-527 161 -89 15 -146 -19 -204 -122 -56 -101 -102 -127 -183 -105 -25 7 -90
19 -143 27 -164 23 -228 74 -228 184 -1 62 -19 121 -47 152 -41 46 -89 59
-327 88 -403 50 -575 64 -625 50 -66 -17 -105 -62 -130 -148 -26 -84 -59 -128
-109 -142 -49 -13 -306 -13 -356 1 -48 13 -83 50 -97 103 -28 105 -71 162
-138 185 -41 13 -77 13 -246 -5z"/>
<path d="M14565 35000 c-847 -69 -1641 -358 -2412 -877 -1253 -844 -1985
-1991 -2153 -3377 -51 -424 -53 -824 -4 -1286 176 -1686 1166 -3125 2679
-3895 546 -278 1129 -450 1765 -522 220 -25 802 -25 1015 0 522 61 1005 188
1450 382 118 51 383 183 530 264 50 28 131 62 180 77 l90 28 373 4 372 4 0
350 0 350 -412 -4 c-383 -4 -419 -6 -490 -26 -97 -26 -189 -69 -361 -166 -173
-98 -505 -259 -669 -325 -1267 -509 -2508 -424 -3690 255 -753 433 -1357 1020
-1725 1679 -403 721 -565 1565 -477 2485 54 566 186 1054 413 1525 577 1197
1718 2069 3056 2334 320 64 454 76 850 76 389 0 528 -12 825 -71 504 -100
1004 -295 1426 -555 154 -95 250 -143 332 -165 59 -17 116 -19 495 -22 l427
-3 0 346 0 345 -192 1 c-106 0 -274 4 -373 9 -227 10 -294 29 -526 145 -700
352 -1321 546 -1994 621 -166 18 -643 26 -800 14z"/>
<path d="M28646 33360 c-247 -31 -431 -112 -589 -260 -219 -204 -343 -474
-403 -875 -21 -143 -29 -491 -15 -655 30 -341 119 -618 276 -855 184 -278 408
-404 780 -436 209 -19 426 9 570 72 241 105 432 344 540 674 35 106 73 271 65
278 -3 2 -142 58 -310 124 l-305 119 -31 -121 c-68 -265 -145 -380 -294 -436
-46 -17 -72 -20 -155 -17 -87 3 -108 7 -158 32 -119 60 -199 187 -236 371 -43
215 -50 553 -15 785 38 253 150 429 314 491 70 26 191 26 264 -2 111 -41 212
-161 255 -304 14 -44 26 -82 28 -84 2 -4 613 169 622 176 9 7 -62 222 -108
325 -150 335 -371 522 -691 582 -101 20 -311 28 -404 16z"/>
<path d="M34947 33360 c-294 -37 -492 -201 -579 -480 -20 -66 -23 -95 -23
-240 0 -125 4 -180 17 -227 29 -105 75 -214 134 -317 53 -92 56 -101 39 -110
-90 -53 -203 -134 -258 -186 -123 -114 -219 -285 -264 -468 -26 -104 -23 -322
5 -437 42 -169 146 -340 268 -438 200 -163 534 -223 894 -161 191 33 357 103
505 214 67 50 82 57 95 47 95 -80 247 -203 296 -240 l61 -46 169 252 c93 139
169 255 169 258 0 3 -29 30 -65 59 -53 44 -213 184 -268 235 -11 9 -4 33 33
123 48 118 109 316 120 392 l6 45 -238 68 c-131 37 -244 68 -250 67 -7 0 -13
-6 -13 -12 0 -7 -16 -66 -37 -131 l-37 -117 -24 22 c-34 31 -227 252 -284 325
l-47 60 97 86 c184 161 256 250 312 388 48 116 63 205 58 342 -8 194 -61 319
-189 448 -78 79 -170 128 -299 159 -98 23 -299 33 -403 20z m259 -459 c75 -34
124 -119 124 -216 0 -54 -34 -139 -84 -209 -46 -65 -151 -166 -173 -166 -14 0
-91 122 -135 215 -40 86 -49 182 -24 249 19 51 76 112 120 132 44 19 124 17
172 -5z m-275 -1433 c103 -126 271 -319 361 -414 38 -39 68 -74 68 -77 0 -3
-28 -26 -62 -50 -221 -157 -424 -165 -562 -22 -118 121 -147 306 -71 460 24
49 157 205 175 205 4 0 45 -46 91 -102z"/>
<path d="M20080 32950 l0 -370 365 0 365 0 0 -1130 0 -1130 355 0 355 0 0
1130 0 1130 365 0 365 0 0 370 0 370 -1085 0 -1085 0 0 -370z"/>
<path d="M22580 31820 l0 -1500 358 2 357 3 3 609 2 609 63 -7 c93 -9 161 -48
209 -118 25 -36 121 -252 256 -575 l217 -518 404 -3 c321 -2 402 0 398 10 -52
138 -366 906 -383 939 -13 26 -54 93 -92 150 -73 108 -110 143 -211 194 l-54
27 49 18 c196 70 317 177 409 365 75 154 90 227 90 460 0 216 -9 270 -62 404
-83 211 -229 342 -435 391 -140 33 -295 40 -950 40 l-628 0 0 -1500z m1169
879 c79 -17 134 -58 167 -125 25 -52 29 -69 29 -154 0 -105 -21 -169 -73 -223
-65 -69 -185 -97 -409 -97 l-163 0 0 305 0 305 200 0 c109 0 221 -5 249 -11z"/>
<path d="M25033 32318 c3 -980 4 -1006 25 -1116 35 -184 61 -272 108 -371 127
-269 307 -437 536 -501 191 -53 562 -72 741 -36 186 36 300 91 416 200 216
205 329 461 370 838 7 61 11 446 11 1043 l0 945 -355 0 -354 0 -3 -987 c-3
-908 -5 -993 -21 -1048 -42 -142 -112 -235 -215 -283 -50 -24 -70 -27 -157
-27 -87 0 -107 3 -157 27 -101 47 -173 141 -216 279 -15 48 -17 158 -19 1047
l-4 992 -355 0 -355 0 4 -1002z"/>
<path d="M30225 33308 c-3 -7 -4 -681 -3 -1498 l3 -1485 355 0 355 0 5 370 5
370 180 242 c99 134 182 239 185 235 4 -4 114 -280 246 -614 l239 -608 439 0
c347 0 437 3 433 13 -3 6 -201 428 -441 936 l-436 924 413 551 c227 303 416
557 421 564 6 9 -90 12 -466 12 l-473 0 -370 -562 -370 -562 -5 560 -5 559
-353 3 c-277 2 -354 0 -357 -10z"/>
<path d="M37770 32950 l0 -370 365 0 365 0 0 -1130 0 -1130 355 0 355 0 0
1130 0 1130 365 0 365 0 0 370 0 370 -1085 0 -1085 0 0 -370z"/>
<path d="M40270 31821 l0 -1501 355 0 355 0 2 608 3 607 58 -1 c125 -3 200
-62 272 -218 23 -50 127 -295 230 -544 l188 -452 765 2 765 3 52 220 c28 121
55 232 58 248 l7 27 404 0 404 0 25 -107 c14 -60 40 -172 58 -250 l33 -143
373 0 c205 0 373 1 373 3 0 1 -195 675 -433 1497 l-432 1495 -390 3 -390 2
-424 -1462 c-233 -805 -429 -1478 -435 -1496 -11 -32 -17 -19 -180 390 -186
466 -211 520 -298 656 -68 104 -119 154 -210 202 l-62 33 52 18 c228 78 398
272 469 537 24 88 26 115 27 282 0 204 -10 269 -64 407 -73 191 -203 320 -378
377 -137 46 -182 48 -924 53 l-708 5 0 -1501z m1203 870 c48 -15 103 -64 127
-111 73 -142 26 -366 -89 -424 -73 -38 -192 -56 -363 -56 l-168 0 0 306 0 305
228 -4 c142 -2 241 -8 265 -16z m2437 -680 c66 -283 120 -522 120 -533 0 -17
-14 -18 -250 -18 l-250 0 5 23 c55 231 245 1042 245 1046 0 27 27 -79 130
-518z"/>
<path d="M45310 31820 l0 -1500 355 0 355 0 0 1500 0 1500 -355 0 -355 0 0
-1500z"/>
<path d="M46530 31820 l0 -1500 915 0 915 0 0 370 0 370 -560 0 -560 0 0 1130
0 1130 -355 0 -355 0 0 -1500z"/>
<path d="M48682 31823 l3 -1498 973 -3 972 -2 0 340 0 340 -615 0 -615 0 0
295 0 295 550 0 550 0 0 305 0 305 -550 0 -550 0 0 240 0 240 595 0 595 0 0
320 0 320 -955 0 -955 0 2 -1497z"/>
<path d="M51020 31820 l0 -1500 360 0 360 0 0 611 0 612 66 -6 c109 -10 184
-63 242 -172 9 -16 111 -257 227 -535 l212 -505 401 -3 c221 -1 402 0 402 2 0
13 -357 891 -385 947 -54 106 -154 248 -199 281 -22 16 -65 42 -93 56 -29 14
-53 29 -53 32 0 3 24 14 53 24 336 117 522 473 486 931 -15 192 -68 345 -162
472 -113 152 -265 220 -543 243 -65 5 -401 10 -746 10 l-628 0 0 -1500z m1232
858 c97 -45 145 -149 136 -292 -9 -142 -68 -219 -194 -256 -67 -20 -108 -24
-266 -27 l-188 -5 0 307 0 307 228 -4 c222 -3 228 -4 284 -30z"/>
<path d="M12380 32944 c0 -5 -66 -683 -146 -1507 -81 -823 -145 -1499 -143
-1501 2 -3 247 -41 544 -86 l539 -80 50 48 c341 329 1052 316 1451 -26 110
-95 189 -215 235 -357 21 -62 24 -99 31 -335 6 -233 10 -278 32 -370 48 -200
125 -380 242 -569 200 -322 617 -697 901 -811 353 -140 788 -171 1146 -80 388
99 722 310 977 615 332 397 514 942 472 1409 -38 429 -196 758 -505 1053
l-106 101 52 94 c75 135 153 314 203 464 160 478 134 899 -76 1240 -73 120
-251 299 -378 382 -349 228 -815 335 -1267 291 -676 -65 -1182 -408 -1363
-921 -94 -270 -91 -604 10 -953 20 -70 25 -76 73 -108 145 -96 334 -268 458
-417 222 -265 370 -562 424 -852 l18 -96 50 45 c165 149 333 217 531 216 133
0 204 -17 333 -79 183 -88 302 -257 346 -493 53 -280 -26 -560 -205 -725 -115
-107 -262 -159 -449 -159 -217 -1 -349 40 -485 148 -181 143 -265 304 -249
480 12 130 -32 419 -97 644 -117 402 -342 786 -599 1024 -489 452 -1148 583
-1987 394 l-103 -24 0 41 c1 69 57 726 62 732 3 3 390 -6 859 -20 469 -14 856
-23 859 -18 4 4 12 38 19 77 34 190 147 453 269 624 119 167 302 335 453 416
l61 33 -978 6 c-539 3 -1336 9 -1771 12 -444 4 -793 2 -793 -2z m4549 -1045
c71 -16 147 -57 205 -110 105 -96 156 -210 156 -349 0 -266 -204 -470 -470
-470 -139 0 -253 51 -349 156 -235 257 -110 676 228 770 56 15 171 17 230 3z"/>
<path d="M32740 29045 c-211 -31 -340 -83 -487 -197 -336 -259 -521 -777 -500
-1398 12 -346 75 -610 203 -860 156 -305 386 -482 711 -547 127 -25 441 -25
578 1 253 47 429 137 698 353 l117 95 0 624 0 624 -540 0 -540 0 0 -305 0
-305 235 0 235 0 0 -135 0 -135 -45 -33 c-143 -101 -234 -142 -356 -158 -198
-27 -377 59 -476 229 -146 249 -164 900 -33 1214 56 137 172 250 290 285 80
24 201 21 272 -7 105 -39 201 -152 239 -278 9 -31 17 -41 28 -38 9 3 156 37
326 77 171 39 314 75 320 80 13 13 -17 128 -66 254 -73 190 -197 353 -333 440
-75 48 -190 90 -302 110 -126 23 -451 28 -574 10z"/>
<path d="M25790 29006 c0 -4 -832 -2874 -846 -2919 -5 -16 15 -17 353 -15
l357 3 56 238 55 237 400 -2 399 -3 56 -237 55 -238 367 0 366 0 -18 63 c-11
34 -199 688 -420 1452 -220 765 -403 1398 -406 1408 -5 16 -32 17 -390 17
-211 0 -384 -2 -384 -4z m500 -1285 c66 -281 120 -516 120 -521 0 -6 -96 -10
-245 -10 -136 0 -245 4 -245 9 0 5 50 220 110 477 61 258 116 491 121 517 6
27 13 47 15 44 2 -2 58 -234 124 -516z"/>
<path d="M27920 27540 l0 -1470 895 0 895 0 0 360 0 360 -545 0 -545 0 0 1110
0 1110 -350 0 -350 0 0 -1470z"/>
<path d="M30350 27540 l0 -1470 350 0 350 0 0 1470 0 1470 -350 0 -350 0 0
-1470z"/>
<path d="M34770 27540 l0 -1470 325 0 325 0 0 800 c0 440 3 800 8 800 4 0 195
-359 424 -798 l416 -797 331 -3 331 -2 0 1470 0 1470 -330 0 -330 0 -2 -807
-3 -806 -421 804 -421 804 -327 3 -326 2 0 -1470z"/>
<path d="M37680 27540 l0 -1470 285 0 285 0 1 1113 c0 611 4 1101 8 1087 4
-14 104 -514 221 -1113 l214 -1087 260 2 260 3 216 1095 c119 602 219 1102
222 1110 4 8 7 -486 7 -1097 l1 -1113 285 0 285 0 0 1470 0 1470 -460 0 -460
0 -5 -22 c-3 -13 -81 -412 -175 -887 -94 -476 -172 -866 -174 -868 -1 -2 -43
198 -91 444 -48 247 -127 646 -174 888 l-87 440 -462 3 -462 2 0 -1470z"/>
<path d="M40960 27540 l0 -1470 955 0 955 0 0 330 0 330 -602 2 -603 3 -3 288
-2 287 545 0 545 0 0 300 0 300 -542 2 -543 3 -3 233 -2 232 590 0 590 0 0
315 0 315 -940 0 -940 0 0 -1470z"/>
<path d="M43540 27540 l0 -1470 330 0 330 0 2 804 3 805 420 -804 420 -804
333 -1 332 0 0 1470 0 1470 -330 0 -330 0 -2 -811 -3 -810 -424 810 -425 811
-328 0 -328 0 0 -1470z"/>
<path d="M46302 28648 l3 -363 358 -3 357 -2 0 -1105 0 -1105 350 0 350 0 0
1105 0 1105 355 0 355 0 0 365 0 365 -1065 0 -1065 0 2 -362z"/>
<path d="M13115 28674 c-873 -293 -1026 -347 -1020 -362 11 -30 181 -256 271
-361 704 -822 1609 -1032 2591 -598 118 52 274 137 384 210 l76 50 -102 101
c-209 208 -374 522 -475 908 l-23 87 -87 -88 c-159 -160 -327 -268 -500 -323
-65 -20 -95 -23 -225 -23 -143 0 -154 2 -244 33 -171 60 -321 160 -463 311
l-83 88 -100 -33z"/>
</g>
</svg>
